<svg xmlns="http://www.w3.org/2000/svg" viewBox="0 -0.5 18 20" shape-rendering="crispEdges">
<metadata>Made with Pixels to Svg https://codepen.io/shshaw/pen/XbxvNj</metadata>
<path stroke="#9494ad" d="M13 0h1M11 1h2M14 1h1M8 2h3M15 2h1M6 3h2M16 3h1M5 4h1M17 4h1M4 5h1M16 5h1M3 6h1M16 6h1M2 7h1M15 7h1M2 8h1M15 8h1M1 9h1M15 9h1M1 10h1M15 10h1M1 11h1M15 11h1M1 12h1M14 12h1M0 13h1M14 13h1M0 14h1M9 14h1M13 14h1M0 15h1M6 15h3M10 15h3M0 16h1M6 16h1M0 17h1M6 17h1M1 18h1M5 18h1M2 19h3" />
<path stroke="#52525a" d="M13 1h1M11 2h2M14 2h1M8 3h3M15 3h1M6 4h2M16 4h1M5 5h1M15 5h1M4 6h1M15 6h1M3 7h1M14 7h1M3 8h1M14 8h1M2 9h1M14 9h1M2 10h1M14 10h1M2 11h1M8 11h1M14 11h1M2 12h1M9 12h1M13 12h1M1 13h1M6 13h1M9 13h1M13 13h1M1 14h1M6 14h3M10 14h3M1 15h1M5 15h1M1 16h1M5 16h1M1 17h1M5 17h1M2 18h3" />
<path stroke="#ffffff" d="M13 2h1M11 3h2M14 3h1M8 4h6M15 4h1M6 5h8M5 6h8M4 7h9M4 8h9M3 9h4M9 9h4M3 10h3M10 10h2M3 11h3M3 12h2M3 13h2M2 14h3M2 15h2M2 16h2" />
<path stroke="#dedef7" d="M13 3h1M14 4h1M14 5h1M13 6h2M13 7h1M13 8h1M7 9h2M13 9h1M6 10h4M12 10h2M6 11h1M9 11h4M5 12h1M10 12h3M2 13h1M5 13h1M4 15h1M4 16h1M2 17h2" />
<path stroke="#a5a5b5" d="M7 11h1M13 11h1M6 12h3M7 13h2M10 13h3M5 14h1M4 17h1" />
</svg>